<mxfile host="app.diagrams.net" modified="2020-12-13T14:01:02.794Z" agent="5.0 (Windows NT 10.0; Win64; x64) AppleWebKit/537.36 (KHTML, like Gecko) Chrome/87.0.4280.88 Safari/537.36" etag="yhU3-ExpMVmajxAyayyH" version="14.0.1" type="github">
  <diagram id="vJp_-WfZZ8hn2X-BKur6" name="Page-1">
    <mxGraphModel dx="569" dy="305" grid="1" gridSize="10" guides="1" tooltips="1" connect="1" arrows="1" fold="1" page="1" pageScale="1" pageWidth="850" pageHeight="1100" math="0" shadow="0">
      <root>
        <mxCell id="0" />
        <mxCell id="1" parent="0" />
        <mxCell id="AhCpDjM0Dkvay_AOFEc5-1" value="" style="ellipse;whiteSpace=wrap;html=1;aspect=fixed;fillColor=#f5f5f5;fontColor=#333333;" parent="1" vertex="1">
          <mxGeometry x="420" y="320" width="10" height="10" as="geometry" />
        </mxCell>
        <mxCell id="AhCpDjM0Dkvay_AOFEc5-2" value="" style="ellipse;whiteSpace=wrap;html=1;aspect=fixed;fontColor=#333333;fillColor=#F5F5F5;" parent="1" vertex="1">
          <mxGeometry x="450" y="320" width="10" height="10" as="geometry" />
        </mxCell>
        <mxCell id="AhCpDjM0Dkvay_AOFEc5-3" value="" style="ellipse;whiteSpace=wrap;html=1;aspect=fixed;fontColor=#333333;fillColor=#F5F5F5;" parent="1" vertex="1">
          <mxGeometry x="480" y="320" width="10" height="10" as="geometry" />
        </mxCell>
        <mxCell id="AhCpDjM0Dkvay_AOFEc5-5" value="" style="ellipse;whiteSpace=wrap;html=1;aspect=fixed;fontColor=#333333;fillColor=#000000;" parent="1" vertex="1">
          <mxGeometry x="510" y="320" width="10" height="10" as="geometry" />
        </mxCell>
        <mxCell id="AhCpDjM0Dkvay_AOFEc5-6" value="" style="ellipse;whiteSpace=wrap;html=1;aspect=fixed;fontColor=#333333;fillColor=#000000;" parent="1" vertex="1">
          <mxGeometry x="480" y="350" width="10" height="10" as="geometry" />
        </mxCell>
        <mxCell id="AhCpDjM0Dkvay_AOFEc5-7" value="" style="ellipse;whiteSpace=wrap;html=1;aspect=fixed;fontColor=#333333;fillColor=#000000;" parent="1" vertex="1">
          <mxGeometry x="450" y="350" width="10" height="10" as="geometry" />
        </mxCell>
        <mxCell id="AhCpDjM0Dkvay_AOFEc5-8" value="" style="ellipse;whiteSpace=wrap;html=1;aspect=fixed;fontColor=#333333;fillColor=#000000;" parent="1" vertex="1">
          <mxGeometry x="420" y="350" width="10" height="10" as="geometry" />
        </mxCell>
        <mxCell id="AhCpDjM0Dkvay_AOFEc5-9" value="" style="ellipse;whiteSpace=wrap;html=1;aspect=fixed;fontColor=#333333;fillColor=#000000;" parent="1" vertex="1">
          <mxGeometry x="390" y="320" width="10" height="10" as="geometry" />
        </mxCell>
        <mxCell id="AhCpDjM0Dkvay_AOFEc5-11" value="" style="endArrow=none;html=1;exitX=0.5;exitY=1;exitDx=0;exitDy=0;entryX=0.487;entryY=0.152;entryDx=0;entryDy=0;entryPerimeter=0;" parent="1" source="AhCpDjM0Dkvay_AOFEc5-3" target="AhCpDjM0Dkvay_AOFEc5-6" edge="1">
          <mxGeometry width="50" height="50" relative="1" as="geometry">
            <mxPoint x="556.4644660940671" y="341.46446609406706" as="sourcePoint" />
            <mxPoint x="578.5355339059171" y="368.535533905917" as="targetPoint" />
          </mxGeometry>
        </mxCell>
        <mxCell id="AhCpDjM0Dkvay_AOFEc5-12" value="" style="endArrow=none;html=1;exitX=1;exitY=0.5;exitDx=0;exitDy=0;entryX=0;entryY=0.5;entryDx=0;entryDy=0;" parent="1" source="AhCpDjM0Dkvay_AOFEc5-3" target="AhCpDjM0Dkvay_AOFEc5-5" edge="1">
          <mxGeometry width="50" height="50" relative="1" as="geometry">
            <mxPoint x="495" y="340" as="sourcePoint" />
            <mxPoint x="494.8700000000001" y="361.52" as="targetPoint" />
          </mxGeometry>
        </mxCell>
        <mxCell id="AhCpDjM0Dkvay_AOFEc5-13" value="" style="endArrow=none;html=1;exitX=0.5;exitY=1;exitDx=0;exitDy=0;entryX=0.5;entryY=0;entryDx=0;entryDy=0;" parent="1" source="AhCpDjM0Dkvay_AOFEc5-2" target="AhCpDjM0Dkvay_AOFEc5-7" edge="1">
          <mxGeometry width="50" height="50" relative="1" as="geometry">
            <mxPoint x="450" y="334.92" as="sourcePoint" />
            <mxPoint x="470.0000000000109" y="334.92" as="targetPoint" />
          </mxGeometry>
        </mxCell>
        <mxCell id="AhCpDjM0Dkvay_AOFEc5-14" value="" style="endArrow=none;html=1;exitX=1;exitY=0.5;exitDx=0;exitDy=0;" parent="1" source="AhCpDjM0Dkvay_AOFEc5-1" edge="1">
          <mxGeometry width="50" height="50" relative="1" as="geometry">
            <mxPoint x="465" y="340" as="sourcePoint" />
            <mxPoint x="450" y="325" as="targetPoint" />
          </mxGeometry>
        </mxCell>
        <mxCell id="AhCpDjM0Dkvay_AOFEc5-15" value="" style="endArrow=none;html=1;exitX=1;exitY=0.5;exitDx=0;exitDy=0;entryX=0;entryY=0.5;entryDx=0;entryDy=0;" parent="1" source="AhCpDjM0Dkvay_AOFEc5-9" target="AhCpDjM0Dkvay_AOFEc5-1" edge="1">
          <mxGeometry width="50" height="50" relative="1" as="geometry">
            <mxPoint x="440" y="335" as="sourcePoint" />
            <mxPoint x="460" y="335" as="targetPoint" />
          </mxGeometry>
        </mxCell>
        <mxCell id="AhCpDjM0Dkvay_AOFEc5-16" value="" style="endArrow=none;html=1;exitX=0.5;exitY=0;exitDx=0;exitDy=0;entryX=0.5;entryY=1;entryDx=0;entryDy=0;" parent="1" source="AhCpDjM0Dkvay_AOFEc5-8" target="AhCpDjM0Dkvay_AOFEc5-1" edge="1">
          <mxGeometry width="50" height="50" relative="1" as="geometry">
            <mxPoint x="410" y="335" as="sourcePoint" />
            <mxPoint x="430" y="335" as="targetPoint" />
          </mxGeometry>
        </mxCell>
        <mxCell id="AhCpDjM0Dkvay_AOFEc5-17" value="" style="endArrow=none;html=1;exitX=1;exitY=0.5;exitDx=0;exitDy=0;entryX=0;entryY=0.5;entryDx=0;entryDy=0;dashed=1;dashPattern=1 2;" parent="1" source="AhCpDjM0Dkvay_AOFEc5-2" target="AhCpDjM0Dkvay_AOFEc5-3" edge="1">
          <mxGeometry width="50" height="50" relative="1" as="geometry">
            <mxPoint x="440" y="335" as="sourcePoint" />
            <mxPoint x="460" y="335" as="targetPoint" />
          </mxGeometry>
        </mxCell>
      </root>
    </mxGraphModel>
  </diagram>
</mxfile>
